{"title":"Why.Stop.Now.2012.BluRay.720p.Cinemania.cc.mkv","uid":8877374,"size":5296649589,"categoryP":"video","categoryS":"hd___movies","magnet":"?xt=urn:btih:2775ae3c1082e4c010668f1d8ce94db001bb15a6&amp;dn=Why.Stop.Now.2012.BluRay.720p.Cinemania.cc.mkv&amp;tr=udp%3A%2F%2Ftracker.openbittorrent.com%3A80&amp;tr=udp%3A%2F%2Fopen.demonii.com%3A1337&amp;tr=udp%3A%2F%2Ftracker.coppersurfer.tk%3A6969&amp;tr=udp%3A%2F%2Fexodus.desync.com%3A6969","seeders":4,"leechers":0,"uploader":"ABSTAIN","files":1,"time":1378244652,"description":"General \nWhy.Stop.Now.2012.BluRay.720p.Cinemania.cc.mkv \nFormat : Matroska \nFormat version : Version 4 / Version 2 \nFile size : 4.93 GiB \nDuration : 1h 28mn \nOverall bit rate : 8 014 Kbps \nMovie name : CINEMANIA.CC \nEncoded date : UTC 2013-09-03 14:23:18 \nWriting application : mkvmerge v6.3.0 ('You can't stop me!') built on Jun 28 2013 20:09:41 \nWriting library : libebml v1.3.0 + libmatroska v1.4.0 \n\nVideo \nID : 1 \nFormat : AVC \nFormat/Info : Advanced Video Codec \nFormat profile : &lt;a class=&quot;__cf_email__&quot; href=&quot;/cdn-cgi/l/email-protection&quot; data-cfemail=&quot;89c1e0eee1c9c5bda7b8&quot;&gt;[email&amp;#160;protected]&lt;/a&gt;&lt;script cf-hash='f9e31' type=&quot;text/javascript&quot;&gt;\n/* &lt;![CDATA[ */!function(){try{var t=&quot;currentScript&quot;in document?document.currentScript:function(){for(var t=document.getElementsByTagName(&quot;script&quot;),e=t.length;e--;)if(t[e].getAttribute(&quot;cf-hash&quot;))return t[e]}();if(t&amp;&amp;t.previousSibling){var e,r,n,i,c=t.previousSibling,a=c.getAttribute(&quot;data-cfemail&quot;);if(a){for(e=&quot;&quot;,r=parseInt(a.substr(0,2),16),n=2;a.length-n;n+=2)i=parseInt(a.substr(n,2),16)^r,e+=String.fromCharCode(i);e=document.createTextNode(e),c.parentNode.replaceChild(e,c)}}}catch(u){}}();/* ]]&gt; */&lt;/script&gt; \nFormat settings, CABAC : Yes \nFormat settings, ReFrames : 12 frames \nCodec ID : V_MPEG4/ISO/AVC \nDuration : 1h 28mn \nBit rate : 6 575 Kbps \nWidth : 1 280 pixels \nHeight : 534 pixels \nDisplay aspect ratio : 2.40:1 \nFrame rate mode : Constant \nFrame rate : 23.976 fps \nColor space : YUV \nChroma subsampling : 4:2:0 \nBit depth : 8 bits \nScan type : Progressive \nBits/(Pixel*Frame) : 0.401 \nStream size : 4.05 GiB (82%) \nTitle : CINEMANIA.CC \nWriting library : x264 core 130 r2273 b3065e6 \nEncoding settings : cabac=1 // deblock=1:-3:-3 / analyse=0x3:0x133 / me=tesa / subme=10 / psy=1 / psy_rd=1.05:0.00 // me_range=16 / chroma_me=1 / trellis=2 / 8x8dct=1 / cqm=0 / deadzone=21,11 / fast_pskip=0 / chroma_qp_offset=-2 / threads=12 / lookahead_threads=2 / sliced_threads=0 / nr=0 / decimate=0 / interlaced=0 / bluray_compat=0 / constrained_intra=0 / bframes=8 / b_pyramid=2 / b_adapt=2 / b_bias=0 / direct=3 / weightb=1 / open_gop=0 / weightp=2 / keyint=250 / keyint_min=23 / scenecut=40 / intra_refresh=0 / rc_lookahead=60 / rc=crf / mbtree=0 / crf=16.5 / qcomp=0.70 / qpmin=0 / qpmax=69 / qpstep=4 / vbv_maxrate=50000 / vbv_bufsize=62500 / crf_max=0.0 / nal_hrd=none / ip_ratio=1.10 / pb_ratio=1.10 / aq=1:0.65 \nLanguage : English \nDefault : Yes \nForced : No \nMatrix coefficients : BT.709 \n\nAudio #1 \nID : 2 \nFormat : AC-3 \nFormat/Info : Audio Coding 3 \nMode extension : CM (complete main) \nFormat settings, Endianness : Big \nCodec ID : A_AC3 \nDuration : 1h 28mn \nBit rate mode : Constant \nBit rate : 192 Kbps \nChannel(s) : 2 channels \nChannel positions : Front: L R \nSampling rate : 48.0 KHz \nBit depth : 16 bits \nCompression mode : Lossy \nStream size : 121 MiB (2%) \nTitle : den904 \nLanguage : Russian \nDefault : Yes \nForced : Yes \n\nAudio #2 \nID : 3 \nFormat : AC-3 \nFormat/Info : Audio Coding 3 \nMode extension : CM (complete main) \nFormat settings, Endianness : Big \nCodec ID : A_AC3 \nDuration : 1h 28mn \nBit rate mode : Constant \nBit rate : 448 Kbps \nChannel(s) : 6 channels \nChannel positions : Front: L C R, Side: L R, LFE \nSampling rate : 48.0 KHz \nBit depth : 16 bits \nCompression mode : Lossy \nStream size : 282 MiB (6%) \nTitle : Kerob \nLanguage : Russian \nDefault : No \nForced : No \n\nAudio #3 \nID : 4 \nFormat : AC-3 \nFormat/Info : Audio Coding 3 \nMode extension : CM (complete main) \nFormat settings, Endianness : Big \nCodec ID : A_AC3 \nDuration : 1h 28mn \nBit rate mode : Constant \nBit rate : 640 Kbps \nChannel(s) : 6 channels \nChannel positions : Front: L C R, Side: L R, LFE \nSampling rate : 48.0 KHz \nBit depth : 16 bits \nCompression mode : Lossy \nStream size : 403 MiB (8%) \nLanguage : English \nDefault : No \nForced : No \n\nText #1 \nID : 5 \nFormat : UTF-8 \nCodec ID : S_TEXT/UTF8 \nCodec ID/Info : UTF-8 Plain Text \nLanguage : Russian \nDefault : No \nForced : No \n\nText #2 \nID : 6 \nFormat : UTF-8 \nCodec ID : S_TEXT/UTF8 \nCodec ID/Info : UTF-8 Plain Text \nTitle : English \nLanguage : English \nDefault : No \nForced : No \n\nText #3 \nID : 7 \nFormat : UTF-8 \nCodec ID : S_TEXT/UTF8 \nCodec ID/Info : UTF-8 Plain Text \nTitle : Spanish \nLanguage : Spanish \nDefault : No \nForced : No \n\nMenu \n00:00:00.000 : en:00:00:00.000 \n00:06:51.661 : en:00:06:51.661 \n00:13:39.193 : en:00:13:39.193 \n00:22:04.823 : en:00:22:04.823 \n00:28:01.013 : en:00:28:01.013 \n00:36:17.926 : en:00:36:17.926 \n00:42:21.205 : en:00:42:21.205 \n00:48:50.010 : en:00:48:50.010 \n00:56:09.491 : en:00:56:09.491 \n01:05:54.409 : en:01:05:54.409 \n01:16:10.608 : en:01:16:10.608 \n01:22:44.501 : en:01:22:44.501 ","torrent":{"xt":"urn:btih:2775ae3c1082e4c010668f1d8ce94db001bb15a6","amp;dn":"Why.Stop.Now.2012.BluRay.720p.Cinemania.cc.mkv","amp;tr":["udp%3A%2F%2Ftracker.openbittorrent.com%3A80","udp%3A%2F%2Fopen.demonii.com%3A1337","udp%3A%2F%2Ftracker.coppersurfer.tk%3A6969","udp%3A%2F%2Fexodus.desync.com%3A6969"],"infoHash":"2775ae3c1082e4c010668f1d8ce94db001bb15a6","infoHashBuffer":{"type":"Buffer","data":[39,117,174,60,16,130,228,192,16,102,143,29,140,233,77,176,1,187,21,166]},"announce":[],"urlList":[]}}